<mxfile host="app.diagrams.net" agent="Mozilla/5.0 (Windows NT 10.0; Win64; x64) AppleWebKit/537.36 (KHTML, like Gecko) Chrome/134.0.0.0 Safari/537.36" version="26.1.1">
  <diagram name="Página-1" id="TfDxnbEWLxpVlP0Rxzfn">
    <mxGraphModel dx="1559" dy="784" grid="1" gridSize="10" guides="1" tooltips="1" connect="1" arrows="1" fold="1" page="1" pageScale="1" pageWidth="2000" pageHeight="2000" math="0" shadow="0">
      <root>
        <mxCell id="0" />
        <mxCell id="1" parent="0" />
        <mxCell id="iRqtxsC92CXNyJk650mX-1" value="Sistema de Aluguel de Automóvel" style="shape=folder;fontStyle=1;spacingTop=10;tabWidth=40;tabHeight=14;tabPosition=left;html=1;whiteSpace=wrap;verticalAlign=top;" parent="1" vertex="1">
          <mxGeometry x="480" y="80" width="810" height="520" as="geometry" />
        </mxCell>
        <mxCell id="p6TaTcMDw8kbjKdSbu1J-1" value="&lt;div&gt;&amp;lt;&amp;lt;layer&amp;gt;&amp;gt;&lt;/div&gt;Apresentação" style="shape=folder;fontStyle=1;spacingTop=10;tabWidth=40;tabHeight=14;tabPosition=left;html=1;whiteSpace=wrap;verticalAlign=top;" vertex="1" parent="1">
          <mxGeometry x="570" y="430" width="640" height="140" as="geometry" />
        </mxCell>
        <mxCell id="p6TaTcMDw8kbjKdSbu1J-4" style="edgeStyle=orthogonalEdgeStyle;rounded=0;orthogonalLoop=1;jettySize=auto;html=1;dashed=1;dashPattern=8 8;endArrow=open;endFill=0;" edge="1" parent="1" source="p6TaTcMDw8kbjKdSbu1J-2" target="p6TaTcMDw8kbjKdSbu1J-3">
          <mxGeometry relative="1" as="geometry" />
        </mxCell>
        <mxCell id="p6TaTcMDw8kbjKdSbu1J-2" value="&lt;div&gt;&amp;lt;&amp;lt;layer&amp;gt;&amp;gt;&lt;/div&gt;Modelo" style="shape=folder;fontStyle=1;spacingTop=10;tabWidth=40;tabHeight=14;tabPosition=left;html=1;whiteSpace=wrap;verticalAlign=top;" vertex="1" parent="1">
          <mxGeometry x="570" y="117.5" width="640" height="150" as="geometry" />
        </mxCell>
        <mxCell id="p6TaTcMDw8kbjKdSbu1J-5" style="edgeStyle=orthogonalEdgeStyle;rounded=0;orthogonalLoop=1;jettySize=auto;html=1;dashed=1;dashPattern=8 8;endArrow=open;endFill=0;" edge="1" parent="1" source="p6TaTcMDw8kbjKdSbu1J-3" target="p6TaTcMDw8kbjKdSbu1J-1">
          <mxGeometry relative="1" as="geometry" />
        </mxCell>
        <mxCell id="p6TaTcMDw8kbjKdSbu1J-3" value="&lt;div&gt;&amp;lt;&amp;lt;layer&amp;gt;&amp;gt;&lt;/div&gt;Controle" style="shape=folder;fontStyle=1;spacingTop=10;tabWidth=40;tabHeight=14;tabPosition=left;html=1;whiteSpace=wrap;verticalAlign=top;" vertex="1" parent="1">
          <mxGeometry x="570" y="290" width="640" height="110" as="geometry" />
        </mxCell>
        <mxCell id="iRqtxsC92CXNyJk650mX-4" value="&lt;div&gt;&lt;span style=&quot;background-color: transparent; color: light-dark(rgb(0, 0, 0), rgb(255, 255, 255));&quot;&gt;Automóvel&lt;/span&gt;&lt;/div&gt;" style="shape=folder;fontStyle=1;spacingTop=10;tabWidth=40;tabHeight=14;tabPosition=left;html=1;whiteSpace=wrap;verticalAlign=top;" parent="1" vertex="1">
          <mxGeometry x="700" y="190" width="80" height="45" as="geometry" />
        </mxCell>
        <mxCell id="iRqtxsC92CXNyJk650mX-2" value="&lt;div&gt;&lt;span style=&quot;background-color: transparent; color: light-dark(rgb(0, 0, 0), rgb(255, 255, 255));&quot;&gt;Usuário&lt;/span&gt;&lt;/div&gt;" style="shape=folder;fontStyle=1;spacingTop=10;tabWidth=40;tabHeight=14;tabPosition=left;html=1;whiteSpace=wrap;verticalAlign=top;" parent="1" vertex="1">
          <mxGeometry x="970" y="190" width="90" height="50" as="geometry" />
        </mxCell>
        <mxCell id="p6TaTcMDw8kbjKdSbu1J-6" value="&lt;div&gt;&lt;span style=&quot;background-color: transparent; color: light-dark(rgb(0, 0, 0), rgb(255, 255, 255));&quot;&gt;Automóvel&lt;/span&gt;&lt;/div&gt;" style="shape=folder;fontStyle=1;spacingTop=10;tabWidth=40;tabHeight=14;tabPosition=left;html=1;whiteSpace=wrap;verticalAlign=top;" vertex="1" parent="1">
          <mxGeometry x="700" y="490" width="80" height="45" as="geometry" />
        </mxCell>
        <mxCell id="p6TaTcMDw8kbjKdSbu1J-9" value="&lt;div&gt;&lt;span style=&quot;background-color: transparent; color: light-dark(rgb(0, 0, 0), rgb(255, 255, 255));&quot;&gt;Usuário&lt;/span&gt;&lt;/div&gt;" style="shape=folder;fontStyle=1;spacingTop=10;tabWidth=40;tabHeight=14;tabPosition=left;html=1;whiteSpace=wrap;verticalAlign=top;" vertex="1" parent="1">
          <mxGeometry x="970" y="485" width="90" height="50" as="geometry" />
        </mxCell>
        <mxCell id="p6TaTcMDw8kbjKdSbu1J-10" value="&lt;div&gt;&lt;span style=&quot;background-color: transparent; color: light-dark(rgb(0, 0, 0), rgb(255, 255, 255));&quot;&gt;Automóvel&lt;/span&gt;&lt;/div&gt;" style="shape=folder;fontStyle=1;spacingTop=10;tabWidth=40;tabHeight=14;tabPosition=left;html=1;whiteSpace=wrap;verticalAlign=top;" vertex="1" parent="1">
          <mxGeometry x="700" y="338.75" width="80" height="45" as="geometry" />
        </mxCell>
        <mxCell id="p6TaTcMDw8kbjKdSbu1J-11" value="&lt;div&gt;&lt;span style=&quot;background-color: transparent; color: light-dark(rgb(0, 0, 0), rgb(255, 255, 255));&quot;&gt;Usuário&lt;/span&gt;&lt;/div&gt;" style="shape=folder;fontStyle=1;spacingTop=10;tabWidth=40;tabHeight=14;tabPosition=left;html=1;whiteSpace=wrap;verticalAlign=top;" vertex="1" parent="1">
          <mxGeometry x="970" y="338.75" width="90" height="50" as="geometry" />
        </mxCell>
      </root>
    </mxGraphModel>
  </diagram>
</mxfile>
